<?xml version="1.0" encoding="UTF-8" standalone="no"?>
<!DOCTYPE svg PUBLIC "-//W3C//DTD SVG 20010904//EN"
              "http://www.w3.org/TR/2001/REC-SVG-20010904/DTD/svg10.dtd">

<svg xmlns="http://www.w3.org/2000/svg"
     width="2.77778in" height="2.77778in"
     viewBox="0 0 200 200">
  <path id="Selection"
        fill="none" stroke="black" stroke-width="1"
        d="M 92.00,19.21
           C 92.00,19.21 101.00,19.21 101.00,19.21
             109.65,19.04 119.88,21.10 128.00,24.05
             138.28,27.79 147.94,33.74 155.99,41.17
             160.90,45.70 165.69,52.29 169.19,58.00
             188.23,89.08 183.56,127.89 159.71,155.00
             153.79,161.72 142.23,169.91 134.00,173.56
             122.63,178.61 110.43,181.14 98.00,181.00
             38.12,180.30 0.43,114.30 28.32,62.00
             42.07,36.23 63.93,23.66 92.00,19.21 Z
           M 93.00,24.28
           C 66.71,28.14 44.69,40.38 32.37,65.00
             12.61,104.49 29.30,153.51 71.00,170.20
             79.59,173.64 88.70,175.89 98.00,176.00
             110.66,176.14 119.34,174.20 131.00,169.40
             139.83,165.76 150.19,158.19 156.41,150.99
             186.24,116.43 181.87,64.92 144.00,38.04
             136.84,32.95 129.46,29.33 121.00,26.91
             112.15,24.37 102.16,23.43 93.00,24.28 Z
           M 116.00,114.00
           C 116.00,118.79 115.39,124.98 119.39,128.48
             124.17,132.65 132.02,128.28 130.30,120.00
             127.64,107.13 107.82,97.39 106.76,80.00
             105.50,59.26 128.73,57.83 136.47,65.53
             142.37,71.40 140.96,78.70 140.00,86.00
             140.00,86.00 131.00,86.00 131.00,86.00
             131.00,81.24 131.67,75.86 127.77,72.31
             122.40,67.43 115.80,72.96 117.42,80.00
             118.38,84.17 123.31,89.66 126.08,93.00
             132.75,101.02 140.51,109.06 141.47,120.00
             143.19,139.51 119.33,143.01 110.53,134.44
             104.85,128.92 106.08,120.96 107.00,114.00
             107.00,114.00 116.00,114.00 116.00,114.00 Z
           M 58.00,62.00
           C 59.96,62.00 64.04,61.83 65.73,62.60
             69.18,64.17 71.45,73.41 72.81,77.00
             76.17,85.88 82.38,106.22 87.00,113.00
             85.08,102.29 86.00,74.44 86.00,62.00
             86.00,62.00 95.00,62.00 95.00,62.00
             95.00,62.00 95.00,138.00 95.00,138.00
             95.00,138.00 86.70,137.01 86.70,137.01
             86.70,137.01 80.31,122.00 80.31,122.00
             80.31,122.00 67.00,88.00 67.00,88.00
             67.00,88.00 68.00,105.00 68.00,105.00
             68.00,105.00 68.00,138.00 68.00,138.00
             68.00,138.00 58.00,138.00 58.00,138.00
             58.00,138.00 58.00,62.00 58.00,62.00 Z" />
</svg>
